<svg width="52" height="51" viewBox="0 0 52 51" fill="none" xmlns="http://www.w3.org/2000/svg">
<path d="M22.3711 25.057C22.3711 27.247 24.1481 29.023 26.3371 29.023C27.8751 29.023 29.1931 28.139 29.8511 26.86L29.8621 26.87L37.1021 13.808L24.3921 21.602L24.4041 21.614C23.1971 22.295 22.3711 23.573 22.3711 25.057Z" fill="#FFA800"/>
<path d="M42.315 6.159C38.251 2.607 33 0.339 27 0V6.027C32 6.345 34.946 7.933 37.904 10.411L42.315 6.159Z" fill="#FFA800"/>
<path d="M45.1457 23.178H51.1657C50.7617 17.178 48.4147 12.248 44.7707 8.20801L40.5117 12.441C43.0777 15.381 44.7657 19.178 45.1457 23.178Z" fill="#FFA800"/>
<path d="M45.1739 26.178C44.5369 36.178 36.2519 44.109 26.1319 44.109C15.5969 44.109 6.71094 35.565 6.71094 25.031C6.71094 15.003 14.9999 6.79798 23.9999 6.02798V0.000976562C10.9999 0.779977 0.710938 11.718 0.710938 25.057C0.710938 38.9 12.1309 50.109 25.9739 50.109C39.4059 50.109 50.5639 39.178 51.2049 26.178H45.1739Z" fill="#FFA800"/>
</svg>
