<svg width="15" height="28" viewBox="0 0 15 28" fill="none" xmlns="http://www.w3.org/2000/svg">
<path d="M14.3691 0.453312L10.9026 0.447754C7.00815 0.447754 4.49138 3.02808 4.49138 7.02182V10.0529H1.00601C0.704828 10.0529 0.460938 10.2969 0.460938 10.5979V14.9896C0.460938 15.2905 0.705106 15.5342 1.00601 15.5342H4.49138V26.6159C4.49138 26.9169 4.73527 27.1606 5.03645 27.1606H9.58388C9.88506 27.1606 10.1289 26.9166 10.1289 26.6159V15.5342H14.2042C14.5053 15.5342 14.7492 15.2905 14.7492 14.9896L14.7509 10.5979C14.7509 10.4534 14.6933 10.315 14.5913 10.2127C14.4892 10.1104 14.3502 10.0529 14.2056 10.0529H10.1289V7.48341C10.1289 6.24841 10.4235 5.62146 12.0333 5.62146L14.3685 5.62063C14.6694 5.62063 14.9133 5.37663 14.9133 5.07594V0.998001C14.9133 0.697588 14.6697 0.453868 14.3691 0.453312Z" fill="#FFA800"/>
</svg>
