<svg xmlns="http://www.w3.org/2000/svg" width="26" height="28" viewBox="0 0 26 28" fill="none"><style>path{fill:#FFA800;}</style><path d="M19.6 27.1V15.7C19.6 15.1 19.5 14.6 19.3 14.2 19 13.9 18.6 13.7 17.9 13.7 15.6 13.7 15.1 15.5 15 15.7V27.1L9.3 27.1V8.5H15V10C15.4 9.8 15.9 9.5 16.5 9.2 17.4 8.8 18.5 8.5 19.9 8.5 20.9 8.5 22.7 8.9 23.9 10.6 24.7 11.7 25.3 13.4 25.3 15.8V27.1L19.6 27.1Z"/><path d="M3.7 6.3C2.9 6.3 2.3 6 1.8 5.5 1.3 5 1 4.3 1 3.6 1 2.9 1.3 2.2 1.8 1.7 2.3 1.2 2.9 0.9 3.7 0.9L3.7 0.9C4.4 0.9 5.1 1.2 5.6 1.7 6.1 2.2 6.4 2.9 6.4 3.6 6.4 4.3 6.1 5 5.6 5.5 5.1 6 4.4 6.3 3.7 6.3Z"/><path d="M0.8 27.1V8.5H6.5V27.1H0.8Z" class="a"/></svg>
