<svg width="47" height="42" viewBox="0 0 47 42" fill="none" xmlns="http://www.w3.org/2000/svg">
<path d="M18.568 22.5239C17.6738 23.5152 17.4545 24.2263 16.2837 26.0888C17.0398 26.6201 18.4964 27.8491 19.5053 29.965C21.5205 28.8017 22.4601 28.6242 23.5279 27.7193C30.4987 21.8107 47.5733 0.631548 46.9853 0.018869C46.3642 -0.632426 24.7059 15.7486 18.568 22.5239Z" fill="#FFA800"/>
<path d="M14.269 27.734C11.2399 27.1952 8.25199 29.1223 6.25623 33.9372C4.25763 38.7517 0.691322 40.6793 0 40.5614C3.72264 41.9167 15.0732 45.3832 17.8948 32.1865C16.698 29.0215 14.269 27.734 14.269 27.734Z" fill="#FFA800"/>
</svg>
