<svg xmlns="http://www.w3.org/2000/svg" width="15" height="28" viewBox="0 0 15 28" fill="none"><path d="M14.4 0.5L10.9 0.4C7 0.4 4.5 3 4.5 7V10.1H1C0.7 10.1 0.5 10.3 0.5 10.6V15C0.5 15.3 0.7 15.5 1 15.5H4.5V26.6C4.5 26.9 4.7 27.2 5 27.2H9.6C9.9 27.2 10.1 26.9 10.1 26.6V15.5H14.2C14.5 15.5 14.7 15.3 14.7 15L14.8 10.6C14.8 10.5 14.7 10.3 14.6 10.2 14.5 10.1 14.4 10.1 14.2 10.1H10.1V7.5C10.1 6.2 10.4 5.6 12 5.6L14.4 5.6C14.7 5.6 14.9 5.4 14.9 5.1V1C14.9 0.7 14.7 0.5 14.4 0.5Z" fill="#FFA800"/></svg>
