<svg xmlns="http://www.w3.org/2000/svg" width="36" height="30" viewBox="0 0 36 30" fill="none"><path d="M24.2 17.5C24.9 17.5 25.4 17.8 25.9 18.4 26.4 19.1 26.7 19.9 26.7 20.9 26.7 21.8 26.4 22.7 25.9 23.3 25.5 24 24.9 24.3 24.2 24.3 23.5 24.3 22.9 24 22.4 23.3 22 22.7 21.7 21.8 21.7 20.9 21.7 19.9 22 19.1 22.4 18.4 22.9 17.8 23.5 17.5 24.2 17.5ZM32.8 8.6C34.7 10.6 35.6 13.1 35.6 16 35.6 17.8 35.4 19.5 35 21 34.5 22.5 34 23.7 33.3 24.6 32.7 25.6 31.9 26.4 30.9 27.1 29.9 27.8 29.1 28.3 28.3 28.6 27.4 29 26.5 29.2 25.5 29.4 24.4 29.6 23.7 29.7 23.1 29.7 22.6 29.7 22 29.8 21.4 29.8 21.3 29.8 20.8 29.8 20 29.8 19.3 29.8 18.7 29.8 18.1 29.8 17.6 29.8 17 29.8 16.3 29.8 15.5 29.8 15 29.8 14.9 29.8 14.3 29.8 13.7 29.7 13.2 29.7 12.6 29.7 11.9 29.6 10.8 29.4 9.8 29.2 8.9 29 8 28.6 7.2 28.3 6.4 27.8 5.4 27.1 4.4 26.4 3.6 25.6 3 24.6 2.3 23.7 1.8 22.5 1.3 21 0.9 19.5 0.7 17.8 0.7 16 0.7 13.1 1.6 10.6 3.5 8.6 3.3 8.5 3.3 7.5 3.5 5.6 3.6 3.6 4 1.9 4.7 0.2 7 0.5 9.9 1.8 13.4 4.2 14.5 3.9 16.1 3.7 18.1 3.7 20.3 3.7 21.9 3.9 22.9 4.2 24.5 3.1 26 2.3 27.4 1.6 28.9 1 29.9 0.6 30.6 0.5L31.6 0.2C32.3 1.9 32.7 3.6 32.8 5.6 33 7.5 33 8.5 32.8 8.6ZM18.2 28.1C22.4 28.1 25.6 27.6 27.8 26.6 29.9 25.6 31 23.5 31 20.3 31 18.5 30.3 17 28.9 15.8 28.2 15.1 27.4 14.7 26.5 14.6 25.5 14.4 24.1 14.4 22.2 14.6 20.3 14.7 18.9 14.8 18.2 14.8 17.3 14.8 16.2 14.8 14.9 14.7 13.6 14.6 12.6 14.5 11.9 14.5 11.1 14.4 10.4 14.5 9.5 14.7 8.6 14.9 7.9 15.3 7.4 15.8 6.1 17 5.4 18.5 5.4 20.3 5.4 23.5 6.5 25.6 8.6 26.6 10.7 27.6 13.9 28.1 18.1 28.1H18.2ZM12.1 17.5C12.8 17.5 13.4 17.8 13.9 18.4 14.3 19.1 14.6 19.9 14.6 20.9 14.6 21.8 14.3 22.7 13.9 23.3 13.4 24 12.8 24.3 12.1 24.3 11.5 24.3 10.8 24 10.4 23.3 9.9 22.6 9.6 21.8 9.6 20.9 9.6 19.9 9.9 19.1 10.4 18.4 10.8 17.8 11.4 17.5 12.1 17.5Z" fill="#FFA800"/></svg>
