<svg width="36" height="30" viewBox="0 0 36 30" fill="none" xmlns="http://www.w3.org/2000/svg">
<path d="M24.2234 17.4601C24.8934 17.4601 25.4495 17.7914 25.9342 18.4467C26.4118 19.1092 26.6684 19.9141 26.6684 20.8794C26.6684 21.8375 26.4154 22.6531 25.9342 23.3049C25.453 23.9674 24.8934 24.2915 24.2234 24.2915C23.5283 24.2915 22.9224 23.9638 22.4413 23.3049C21.9636 22.6531 21.707 21.8375 21.707 20.8794C21.707 19.9141 21.9601 19.1092 22.4413 18.4467C22.9153 17.7878 23.5248 17.4601 24.2234 17.4601ZM32.806 8.5879C34.6666 10.611 35.6146 13.0614 35.6146 15.95C35.6146 17.8163 35.4008 19.4974 34.9695 20.9933C34.5311 22.4821 33.9858 23.6967 33.3371 24.6298C32.6777 25.5666 31.8686 26.3858 30.9063 27.0945C29.944 27.8069 29.0565 28.3198 28.2509 28.6475C27.4383 28.9751 26.5187 29.228 25.478 29.4097C24.4372 29.5877 23.6673 29.6875 23.1256 29.716C22.5945 29.7373 22.0314 29.7516 21.4148 29.7516C21.2757 29.7516 20.8088 29.7623 20.0497 29.7908C19.2976 29.8228 18.6525 29.8299 18.1499 29.8299C17.6474 29.8299 16.9987 29.8228 16.2502 29.7908C15.491 29.7623 15.0241 29.7516 14.8851 29.7516C14.272 29.7516 13.7089 29.7409 13.1743 29.716C12.6289 29.6875 11.8626 29.5877 10.8219 29.4097C9.76686 29.2316 8.86154 28.9751 8.0489 28.6475C7.23982 28.3198 6.35233 27.8069 5.39355 27.0945C4.42764 26.3858 3.61856 25.5666 2.95918 24.6298C2.30693 23.6931 1.76517 22.4821 1.32677 20.9933C0.895494 19.4974 0.681641 17.8127 0.681641 15.95C0.681641 13.0614 1.62616 10.6074 3.48669 8.5879C3.28353 8.48462 3.27283 7.47309 3.4653 5.55333C3.62213 3.63001 4.03201 1.85984 4.69852 0.239258C7.02953 0.485016 9.91299 1.80641 13.3596 4.18207C14.5215 3.88645 16.1076 3.72617 18.1428 3.72617C20.2671 3.72617 21.8638 3.88645 22.9296 4.18563C24.4978 3.1278 25.9984 2.26231 27.4312 1.60695C28.8889 0.955162 29.9368 0.570497 30.5962 0.467207L31.5835 0.242819C32.2571 1.85984 32.667 3.63357 32.8203 5.55689C33.0163 7.47309 33.0092 8.48462 32.806 8.5879ZM18.2212 28.0847C22.4341 28.0847 25.592 27.5825 27.7555 26.571C29.8869 25.563 30.9776 23.483 30.9776 20.3487C30.9776 18.5286 30.2968 17.0078 28.9281 15.7897C28.2331 15.1343 27.3991 14.7319 26.4617 14.5787C25.5243 14.4255 24.0951 14.4255 22.1704 14.5787C20.2528 14.7319 18.9305 14.8031 18.2248 14.8031C17.2624 14.8031 16.2288 14.7568 14.935 14.6571C13.6376 14.5573 12.6182 14.4968 11.884 14.4612C11.1498 14.4398 10.3656 14.5288 9.49241 14.7319C8.63343 14.9349 7.92415 15.291 7.36457 15.7897C6.06362 16.9579 5.39355 18.4752 5.39355 20.3487C5.39355 23.4865 6.45569 25.563 8.5871 26.571C10.7078 27.5789 13.8586 28.0847 18.0715 28.0847H18.2212ZM12.1478 17.4601C12.8178 17.4601 13.3739 17.7914 13.8586 18.4467C14.3362 19.1092 14.5928 19.9141 14.5928 20.8794C14.5928 21.8375 14.3398 22.6531 13.8586 23.3049C13.381 23.9674 12.8178 24.2915 12.1478 24.2915C11.4527 24.2915 10.8468 23.9638 10.3621 23.3049C9.88448 22.6495 9.62785 21.8375 9.62785 20.8794C9.62785 19.9141 9.88091 19.1092 10.3621 18.4467C10.8433 17.7878 11.4492 17.4601 12.1478 17.4601Z" fill="#FFA800"/>
</svg>
