<svg width="26" height="28" viewBox="0 0 26 28" fill="none" xmlns="http://www.w3.org/2000/svg">
<path d="M19.5893 27.065V15.6812C19.5893 15.0842 19.5091 14.5841 19.2588 14.2498C19.0186 13.9291 18.597 13.7418 17.8989 13.7418C15.6393 13.7418 15.0743 15.4533 15.0014 15.7133V27.065L9.31695 27.065V8.53247H15.0014V9.99966C15.3818 9.75278 15.8872 9.46646 16.5034 9.21356C17.4046 8.84373 18.5415 8.54519 19.8678 8.54519C20.9257 8.54519 22.6664 8.92238 23.8914 10.5962C24.6963 11.6961 25.2747 13.3543 25.2747 15.8312V27.065L19.5893 27.065Z" fill="#FFA800"/>
<path d="M3.67426 6.2917C2.93271 6.2917 2.26028 5.98988 1.77333 5.50068C1.28773 5.01287 0.987216 4.33936 0.987216 3.59384C0.987216 2.85267 1.28823 2.18144 1.77448 1.69552C2.2609 1.20945 2.93281 0.908691 3.67426 0.908691L3.67644 0.90978C4.41824 0.916887 5.08921 1.22027 5.57413 1.70485C6.06041 2.1908 6.36128 2.85891 6.36128 3.59385C6.36128 4.33947 6.0609 5.01307 5.57531 5.50091C5.08848 5.98996 4.41614 6.2917 3.67426 6.2917Z" fill="#FFA800"/>
<path d="M0.823242 27.065V8.53251H6.52502V27.065H0.823242Z" fill="#FFA800"/>
</svg>
