<svg width="64" height="64" viewBox="0 0 64 64" fill="none" xmlns="http://www.w3.org/2000/svg">
<path d="M15.1727 6.25946C20.2859 3.16895 26.8318 6.21824 32.8571 6.21824L32.0678 7.74888C27.2421 7.74888 22.6611 9.06161 18.566 11.5368C14.4709 14.012 11.1738 17.551 9.04928 21.7519C6.92473 25.9528 6.05788 30.6472 6.54719 35.3018C7.0365 39.9565 8.86235 44.3848 11.8174 48.0837C14.7724 51.7827 18.7381 54.604 23.264 56.2273C27.79 57.8506 32.6948 58.2107 37.4212 57.2668C42.1477 56.3228 46.5064 54.1127 50.0023 50.8874L55.7486 53.142C54.0712 55.4858 46.2269 61.8576 38.7153 63.3577C32.8138 64.5363 26.6897 64.0867 21.0386 62.0599C15.3876 60.033 10.436 56.5103 6.74638 51.8918C3.05676 47.2733 0.777005 41.7442 0.166054 35.9324C-0.444896 30.1207 0.637452 24.2593 3.29015 19.014C5.94286 13.7688 10.0596 9.34997 15.1727 6.25946Z" fill="url(#paint0_linear)"/>
<path d="M32.8569 0C26.8316 -6.96634e-08 20.8777 1.6383 15.7645 4.72881C10.6514 7.81932 6.53465 12.2382 3.88195 17.4834C1.22925 22.7286 0.146901 28.59 0.757851 34.4018C1.3688 40.2135 3.64856 45.7427 7.33817 50.3612C11.0278 54.9797 15.9794 58.5024 21.6304 60.5292C27.2815 62.556 33.4056 63.0057 39.3071 61.8271C45.2085 60.6485 50.6508 57.8889 55.0157 53.8618C59.3806 49.8347 62.4932 44.7015 63.9999 39.0452L57.7895 37.4901C56.5828 42.0202 54.0899 46.1314 50.5941 49.3567C47.0982 52.582 42.7395 54.7922 38.013 55.7361C33.2866 56.68 28.3818 56.3199 23.8558 54.6966C19.3299 53.0734 15.3642 50.252 12.4092 46.5531C9.45415 42.8541 7.62829 38.4258 7.13898 33.7712C6.64968 29.1166 7.51653 24.4222 9.64107 20.2213C11.7656 16.0204 15.0627 12.4813 19.1578 10.0062C23.2529 7.53097 28.0312 6.21824 32.8569 6.21824V0Z" fill="#FFA800"/>
<path d="M37.0997 40.6577C38.9484 39.8968 40.5674 38.8642 41.9848 37.4975C43.4022 36.1307 44.5282 34.519 45.2985 32.7545C46.0687 30.9899 46.4682 29.107 46.4741 27.2132C46.4799 25.3194 46.0921 23.4519 45.3326 21.7173C44.5732 19.9827 43.457 18.4149 42.0479 17.1034C40.6388 15.792 38.9643 14.7626 37.12 14.0741C35.2758 13.3855 33.2978 13.0512 31.2992 13.0903C29.3005 13.1295 27.552 13.8281 25.7033 14.5889L27.874 19.5635C28.9807 19.108 30.0848 18.9017 31.2813 18.8783C32.4777 18.8549 33.6618 19.055 34.7658 19.4672C35.8699 19.8794 36.8723 20.4956 37.7158 21.2807C38.5594 22.0658 39.2276 23.0043 39.6822 24.0427C40.1368 25.0811 40.369 26.1991 40.3655 27.3328C40.362 28.4664 40.1228 29.5936 39.6617 30.6499C39.2006 31.7063 38.5266 32.6711 37.6781 33.4893C36.8295 34.3075 36.5783 34.558 35.4716 35.0134L37.0997 40.6577Z" fill="url(#paint1_linear)"/>
<path d="M26.2458 13.154L28.5153 18.4634L27.8739 19.5635L25.7032 14.5889L26.2458 13.154Z" fill="#824600"/>
<path d="M37.7904 39.5097C39.6392 38.7488 41.3101 37.7222 42.7275 36.3554C44.1449 34.9887 45.2709 33.377 46.0412 31.6124C46.8115 29.8478 47.2109 27.9649 47.2168 26.0711C47.2226 24.1774 46.8348 22.3099 46.0753 20.5752C45.3159 18.8406 44.1998 17.2728 42.7906 15.9614C41.3815 14.65 39.707 13.6206 37.8628 12.932C36.0185 12.2434 34.0406 11.9092 32.0419 11.9483C30.0432 11.9874 28.0948 12.3931 26.246 13.154L28.5154 18.4634C29.6221 18.0079 30.8275 17.7597 32.024 17.7363C33.2204 17.7129 34.4045 17.913 35.5086 18.3252C36.6126 18.7374 37.615 19.3536 38.4586 20.1387C39.3021 20.9237 39.9703 21.8623 40.4249 22.9007C40.8795 23.9391 41.1117 25.057 41.1082 26.1907C41.1047 27.3244 40.8656 28.4516 40.4044 29.5079C39.9433 30.5642 39.2693 31.529 38.4208 32.3472C37.5723 33.1654 36.6277 33.7926 35.521 34.2481L37.7904 39.5097Z" fill="#FFA800"/>
<path d="M35.5208 34.2482L37.7902 39.5098L37.0995 40.6577L35.0274 35.6831L35.5208 34.2482Z" fill="#824600"/>
<path d="M17.5631 17.8436L18.2138 16.6392L34.1392 52.9029L33.2018 53.9074L17.5631 17.8436Z" fill="#C16800"/>
<path d="M18.1836 16.6603L24.4477 14.0744L40.356 50.3199L34.1398 52.9028L18.1836 16.6603Z" fill="#FFA800"/>
<path d="M34.1398 52.9028L40.3587 50.3166L39.4679 51.3244L33.2024 53.9073L34.1398 52.9028Z" fill="#603300"/>
<defs>
<linearGradient id="paint0_linear" x1="27.6276" y1="4.87513" x2="27.6276" y2="64" gradientUnits="userSpaceOnUse">
<stop offset="0.31176" stop-color="#603300"/>
<stop offset="0.336082" stop-color="#C16800"/>
<stop offset="0.814585" stop-color="#603300"/>
<stop offset="1" stop-color="#603300"/>
</linearGradient>
<linearGradient id="paint1_linear" x1="38.3824" y1="40.6577" x2="38.3824" y2="8.80118" gradientUnits="userSpaceOnUse">
<stop offset="0.268425" stop-color="#603300"/>
<stop offset="0.277666" stop-color="#C16800"/>
<stop offset="0.379637" stop-color="#C16800"/>
<stop offset="0.604056" stop-color="#603300"/>
</linearGradient>
</defs>
</svg>
