<svg width="54" height="50" viewBox="0 0 54 50" fill="none" xmlns="http://www.w3.org/2000/svg">
<path fill-rule="evenodd" clip-rule="evenodd" d="M3.26389 16.6667C1.38468 16.6667 0 18.146 0 19.6252V47.0414C0 48.8166 1.48359 50 3.36279 50H38.3754V46.6469H30.0673V40.0394H48.8594C51.431 40.0394 53.4091 37.7712 53.4091 35.2071V4.63511C53.4091 2.36686 51.3321 0.0986193 48.6616 0.0986193C45.9912 0.0986193 10.7807 2.13374e-10 7.91246 0C5.1431 -1.83685e-10 3.26389 2.16963 3.26389 4.93097V16.6667ZM16.6239 43.2939H3.36279V20.217H16.6239V43.2939ZM19.979 46.6469H26.7045V40.0394H19.979V46.6469ZM20.0779 30.8678H50.0463V5.02959C50.0463 4.33925 49.354 3.45168 48.6538 3.45168H8.11027C7.22012 3.45168 6.72559 3.84615 6.72559 4.83235V16.6667L16.6239 16.6667C18.0086 16.6667 20.0779 17.8501 20.0779 19.8225V30.8678ZM8.40699 46.6469C8.40699 45.7594 9.09933 45.069 9.98948 45.069C10.8796 45.069 11.572 45.7594 11.572 46.6469C11.572 47.5345 10.8796 48.2248 9.98948 48.2248C9.09933 48.2248 8.40699 47.5345 8.40699 46.6469Z" fill="#FFA800"/>
</svg>
